<mxfile host="app.diagrams.net" agent="Mozilla/5.0 (Windows NT 10.0; Win64; x64; rv:139.0) Gecko/20100101 Firefox/139.0" version="27.1.6">
  <diagram name="Page-1" id="xL9SZC_J8NqjheALb9CX">
    <mxGraphModel dx="2015" dy="1156" grid="1" gridSize="10" guides="1" tooltips="1" connect="1" arrows="1" fold="1" page="1" pageScale="1" pageWidth="827" pageHeight="1169" math="0" shadow="0">
      <root>
        <mxCell id="0" />
        <mxCell id="1" parent="0" />
        <mxCell id="cVoYEtWIO1YZglKuD1qY-1" value="&lt;div&gt;Serveur Express.js&lt;/div&gt;" style="whiteSpace=wrap;html=1;aspect=fixed;" parent="1" vertex="1">
          <mxGeometry x="270" y="200" width="70" height="70" as="geometry" />
        </mxCell>
        <mxCell id="cVoYEtWIO1YZglKuD1qY-2" value="&lt;div&gt;Application NuxtJS&lt;/div&gt;" style="whiteSpace=wrap;html=1;aspect=fixed;" parent="1" vertex="1">
          <mxGeometry x="460" y="200" width="70" height="70" as="geometry" />
        </mxCell>
        <mxCell id="cVoYEtWIO1YZglKuD1qY-3" value="Le Collectionneur" style="rounded=0;whiteSpace=wrap;html=1;" parent="1" vertex="1">
          <mxGeometry x="340" y="80" width="120" height="60" as="geometry" />
        </mxCell>
      </root>
    </mxGraphModel>
  </diagram>
</mxfile>
